<?xml version="1.0" encoding="utf-8"?>
<!-- Generator: Adobe Illustrator 21.1.0, SVG Export Plug-In . SVG Version: 6.00 Build 0)  -->
<svg version="1.1" id="Layer_1" xmlns="http://www.w3.org/2000/svg" xmlns:xlink="http://www.w3.org/1999/xlink" x="0px" y="0px"
	 viewBox="0 0 450 450" enable-background="new 0 0 450 450" xml:space="preserve">
<rect x="82.8" fill="#F8FAE8" stroke="#000000" stroke-miterlimit="10" width="90.7" height="449.5"/>
<g>
	<polygon fill="#A5CFB0" stroke="#000000" stroke-miterlimit="10" points="178.1,196.5 198.5,119 255.9,177.2 	"/>
	
		<rect x="328.2" y="15.1" transform="matrix(0.6755 0.7374 -0.7374 0.6755 141.2135 -251.6443)" fill="#A5CFB0" stroke="#000000" stroke-miterlimit="10" width="56.6" height="39"/>
	
		<rect x="280.5" y="58.7" transform="matrix(0.6755 0.7374 -0.7374 0.6755 157.894 -202.3264)" fill="#A5CFB0" stroke="#000000" stroke-miterlimit="10" width="56.6" height="39"/>
	
		<rect x="232" y="97.6" transform="matrix(0.6755 0.7374 -0.7374 0.6755 170.8162 -153.9765)" fill="#A5CFB0" stroke="#000000" stroke-miterlimit="10" width="56.6" height="39"/>
</g>
<g>
	<polygon fill="#FF5555" stroke="#000000" stroke-miterlimit="10" points="374.2,450 296.7,429.7 354.8,372.3 	"/>
	
		<rect x="183.9" y="252.3" transform="matrix(0.738 -0.6748 0.6748 0.738 -127.8102 214.3853)" fill="#FF5555" stroke="#000000" stroke-miterlimit="10" width="56.6" height="39"/>
	
		<rect x="227.5" y="300" transform="matrix(0.738 -0.6748 0.6748 0.738 -148.5269 256.3264)" fill="#FF5555" stroke="#000000" stroke-miterlimit="10" width="56.6" height="39"/>
	
		<rect x="266.4" y="348.4" transform="matrix(0.738 -0.6748 0.6748 0.738 -171.0159 295.2605)" fill="#FF5555" stroke="#000000" stroke-miterlimit="10" width="56.6" height="39"/>
</g>
</svg>
